{
  "accessors": [
    {
      "bufferView": 2,
      "componentType": 5126,
      "count": 64211,
      "max": [
        64.81745147705078,
        51.67940902709961,
        16.583702087402344
      ],
      "min": [
        -63.03654479980469,
        -47.8272705078125,
        -0.13672927021980286
      ],
      "type": "VEC3"
    },
    {
      "bufferView": 2,
      "byteOffset": 770532,
      "componentType": 5126,
      "count": 64211,
      "max": [
        0.99992436170578,
        0.9998217225074768,
        0.9999955296516418
      ],
      "min": [
        -0.9999447464942932,
        -0.9998016357421875,
        -1.0
      ],
      "type": "VEC3"
    },
    {
      "bufferView": 1,
      "componentType": 5126,
      "count": 64211,
      "max": [
        0.9949946999549866,
        0.9950000047683716
      ],
      "min": [
        0.004999999888241291,
        0.004999999888241291
      ],
      "type": "VEC2"
    },
    {
      "bufferView": 1,
      "byteOffset": 513688,
      "componentType": 5126,
      "count": 64211,
      "max": [
        3.05787992477417,
        6.551841735839844
      ],
      "min": [
        -0.9513735771179199,
        -1.9762399196624756
      ],
      "type": "VEC2"
    },
    {
      "bufferView": 1,
      "byteOffset": 1027376,
      "componentType": 5126,
      "count": 64211,
      "max": [
        29.242740631103516,
        62.86655807495117
      ],
      "min": [
        -56.35824203491211,
        -4.908149719238281
      ],
      "type": "VEC2"
    },
    {
      "bufferView": 1,
      "byteOffset": 1541064,
      "componentType": 5126,
      "count": 64211,
      "max": [
        29.242740631103516,
        62.86655807495117
      ],
      "min": [
        -56.35824203491211,
        -4.908149719238281
      ],
      "type": "VEC2"
    },
    {
      "bufferView": 1,
      "byteOffset": 2054752,
      "componentType": 5126,
      "count": 64211,
      "max": [
        29.242740631103516,
        62.86655807495117
      ],
      "min": [
        -56.35824203491211,
        -12.950050354003906
      ],
      "type": "VEC2"
    },
    {
      "bufferView": 0,
      "componentType": 5125,
      "count": 132684,
      "type": "SCALAR"
    }
  ],
  "asset": {
    "extras": {
      "author": "vislaw (https://sketchfab.com/vislaw)",
      "license": "CC-BY-4.0 (http://creativecommons.org/licenses/by/4.0/)",
      "source": "https://sketchfab.com/3d-models/trash-3914e499105e4bdda11c6a2b3d2212f7",
      "title": "TRASH"
    },
    "generator": "Sketchfab-15.49.0",
    "version": "2.0"
  },
  "bufferViews": [
    {
      "buffer": 0,
      "byteLength": 530736,
      "name": "floatBufferViews",
      "target": 34963
    },
    {
      "buffer": 0,
      "byteLength": 2568440,
      "byteOffset": 530736,
      "byteStride": 8,
      "name": "floatBufferViews",
      "target": 34962
    },
    {
      "buffer": 0,
      "byteLength": 1541064,
      "byteOffset": 3099176,
      "byteStride": 12,
      "name": "floatBufferViews",
      "target": 34962
    }
  ],
  "buffers": [
    {
      "byteLength": 4640240,
      "uri": "scene.bin"
    }
  ],
  "images": [
    {
      "uri": "textures/Object001_mtl_baseColor.jpeg"
    }
  ],
  "materials": [
    {
      "doubleSided": true,
      "name": "Object001_mtl",
      "pbrMetallicRoughness": {
        "baseColorTexture": {
          "index": 0
        },
        "metallicFactor": 0.0,
        "roughnessFactor": 0.8929713596497552
      }
    }
  ],
  "meshes": [
    {
      "name": "Object001_Object001_mtl_0",
      "primitives": [
        {
          "attributes": {
            "NORMAL": 1,
            "POSITION": 0,
            "TEXCOORD_0": 2,
            "TEXCOORD_1": 3,
            "TEXCOORD_2": 4,
            "TEXCOORD_3": 5,
            "TEXCOORD_4": 6
          },
          "indices": 7,
          "material": 0,
          "mode": 4
        }
      ]
    }
  ],
  "nodes": [
    {
      "children": [
        1
      ],
      "matrix": [
        1.0,
        0.0,
        0.0,
        0.0,
        0.0,
        2.220446049250313e-16,
        -1.0,
        0.0,
        0.0,
        1.0,
        2.220446049250313e-16,
        0.0,
        0.0,
        0.0,
        0.0,
        1.0
      ],
      "name": "Sketchfab_model"
    },
    {
      "children": [
        2
      ],
      "matrix": [
        0.009999999776482582,
        0.0,
        0.0,
        0.0,
        0.0,
        0.0,
        0.009999999776482582,
        0.0,
        0.0,
        -0.009999999776482582,
        0.0,
        0.0,
        0.0,
        0.0,
        0.0,
        1.0
      ],
      "name": "TRASH.fbx"
    },
    {
      "children": [
        3
      ],
      "name": "RootNode"
    },
    {
      "children": [
        4
      ],
      "matrix": [
        1.0,
        0.0,
        0.0,
        0.0,
        0.0,
        2.220446049250313e-16,
        -1.0,
        0.0,
        0.0,
        1.0,
        2.220446049250313e-16,
        0.0,
        0.8904533386230469,
        -0.13672927021980286,
        -1.9260692596435547,
        1.0
      ],
      "name": "Object001"
    },
    {
      "children": [
        5
      ],
      "matrix": [
        1.0,
        0.0,
        -0.0,
        0.0,
        0.0,
        1.0,
        0.0,
        0.0,
        0.0,
        0.0,
        1.0,
        0.0,
        -0.8904533386230469,
        -1.9260692596435547,
        0.13672927021980286,
        1.0
      ],
      "name": "Object_4"
    },
    {
      "mesh": 0,
      "name": "Object001_Object001_mtl_0"
    }
  ],
  "samplers": [
    {
      "magFilter": 9729,
      "minFilter": 9987,
      "wrapS": 10497,
      "wrapT": 10497
    }
  ],
  "scene": 0,
  "scenes": [
    {
      "name": "Sketchfab_Scene",
      "nodes": [
        0
      ]
    }
  ],
  "textures": [
    {
      "sampler": 0,
      "source": 0
    }
  ]
}
