{
  "accessors": [
    {
      "bufferView": 1,
      "componentType": 5126,
      "count": 65532,
      "max": [
        115.8591537475586,
        98.36698150634766,
        4.894933223724365
      ],
      "min": [
        53.2911491394043,
        42.07819747924805,
        4.239233016967773
      ],
      "type": "VEC3"
    },
    {
      "bufferView": 1,
      "byteOffset": 786384,
      "componentType": 5126,
      "count": 65532,
      "max": [
        1.0,
        0.9427338242530823,
        1.0
      ],
      "min": [
        -1.0,
        -0.9921824336051941,
        -1.0
      ],
      "type": "VEC3"
    },
    {
      "bufferView": 0,
      "componentType": 5125,
      "count": 224481,
      "type": "SCALAR"
    },
    {
      "bufferView": 1,
      "byteOffset": 1572768,
      "componentType": 5126,
      "count": 65532,
      "max": [
        115.8591537475586,
        98.36698150634766,
        137.09735107421875
      ],
      "min": [
        42.55836486816406,
        42.07819747924805,
        4.23923397064209
      ],
      "type": "VEC3"
    },
    {
      "bufferView": 1,
      "byteOffset": 2359152,
      "componentType": 5126,
      "count": 65532,
      "max": [
        1.0,
        1.0,
        1.0
      ],
      "min": [
        -1.0,
        -1.0,
        -1.0
      ],
      "type": "VEC3"
    },
    {
      "bufferView": 0,
      "byteOffset": 897924,
      "componentType": 5125,
      "count": 307647,
      "type": "SCALAR"
    },
    {
      "bufferView": 1,
      "byteOffset": 3145536,
      "componentType": 5126,
      "count": 65532,
      "max": [
        114.2461929321289,
        89.14645385742188,
        137.1333465576172
      ],
      "min": [
        53.24019241333008,
        51.2684440612793,
        8.05135440826416
      ],
      "type": "VEC3"
    },
    {
      "bufferView": 1,
      "byteOffset": 3931920,
      "componentType": 5126,
      "count": 65532,
      "max": [
        0.9999991059303284,
        1.0,
        0.999988317489624
      ],
      "min": [
        -0.9999873042106628,
        -0.9999824166297913,
        -1.0
      ],
      "type": "VEC3"
    },
    {
      "bufferView": 0,
      "byteOffset": 2128512,
      "componentType": 5125,
      "count": 314577,
      "type": "SCALAR"
    },
    {
      "bufferView": 1,
      "byteOffset": 4718304,
      "componentType": 5126,
      "count": 65532,
      "max": [
        111.28619384765625,
        82.42044830322266,
        135.2193603515625
      ],
      "min": [
        49.65419006347656,
        48.166446685791016,
        12.171354293823242
      ],
      "type": "VEC3"
    },
    {
      "bufferView": 1,
      "byteOffset": 5504688,
      "componentType": 5126,
      "count": 65532,
      "max": [
        0.999987781047821,
        0.9999992251396179,
        0.99998939037323
      ],
      "min": [
        -1.0,
        -0.9999726414680481,
        -0.9995161890983582
      ],
      "type": "VEC3"
    },
    {
      "bufferView": 0,
      "byteOffset": 3386820,
      "componentType": 5125,
      "count": 317772,
      "type": "SCALAR"
    },
    {
      "bufferView": 1,
      "byteOffset": 6291072,
      "componentType": 5126,
      "count": 65532,
      "max": [
        102.68619537353516,
        87.7364501953125,
        108.5633544921875
      ],
      "min": [
        52.312191009521484,
        53.486446380615234,
        8.057354927062988
      ],
      "type": "VEC3"
    },
    {
      "bufferView": 1,
      "byteOffset": 7077456,
      "componentType": 5126,
      "count": 65532,
      "max": [
        0.9999989867210388,
        0.9999926090240479,
        0.9999989867210388
      ],
      "min": [
        -0.9999989867210388,
        -0.9999950528144836,
        -1.0
      ],
      "type": "VEC3"
    },
    {
      "bufferView": 0,
      "byteOffset": 4657908,
      "componentType": 5125,
      "count": 329007,
      "type": "SCALAR"
    },
    {
      "bufferView": 1,
      "byteOffset": 7863840,
      "componentType": 5126,
      "count": 65532,
      "max": [
        108.68419647216797,
        81.89445495605469,
        138.04934692382813
      ],
      "min": [
        52.5081901550293,
        56.64844512939453,
        12.897354125976563
      ],
      "type": "VEC3"
    },
    {
      "bufferView": 1,
      "byteOffset": 8650224,
      "componentType": 5126,
      "count": 65532,
      "max": [
        0.9999943971633911,
        0.9999813437461853,
        0.9999988675117493
      ],
      "min": [
        -0.9999943971633911,
        -0.9999825358390808,
        -0.9999418258666992
      ],
      "type": "VEC3"
    },
    {
      "bufferView": 0,
      "byteOffset": 5973936,
      "componentType": 5125,
      "count": 330132,
      "type": "SCALAR"
    },
    {
      "bufferView": 1,
      "byteOffset": 9436608,
      "componentType": 5126,
      "count": 65532,
      "max": [
        111.61219787597656,
        89.35044860839844,
        138.04934692382813
      ],
      "min": [
        49.77219009399414,
        48.1224479675293,
        8.05135440826416
      ],
      "type": "VEC3"
    },
    {
      "bufferView": 1,
      "byteOffset": 10222992,
      "componentType": 5126,
      "count": 65532,
      "max": [
        0.9999618530273438,
        0.9999992251396179,
        0.9999997019767761
      ],
      "min": [
        -0.9999997019767761,
        -0.9999808073043823,
        -1.0
      ],
      "type": "VEC3"
    },
    {
      "bufferView": 0,
      "byteOffset": 7294464,
      "componentType": 5125,
      "count": 300048,
      "type": "SCALAR"
    },
    {
      "bufferView": 1,
      "byteOffset": 11009376,
      "componentType": 5126,
      "count": 32985,
      "max": [
        102.60619354248047,
        89.29645538330078,
        134.4173583984375
      ],
      "min": [
        49.696189880371094,
        48.20244598388672,
        8.055354118347168
      ],
      "type": "VEC3"
    },
    {
      "bufferView": 1,
      "byteOffset": 11405196,
      "componentType": 5126,
      "count": 32985,
      "max": [
        0.999981701374054,
        0.9996935725212097,
        1.0
      ],
      "min": [
        -0.9999507665634155,
        -0.9999914765357971,
        -1.0
      ],
      "type": "VEC3"
    },
    {
      "bufferView": 0,
      "byteOffset": 8494656,
      "componentType": 5125,
      "count": 113472,
      "type": "SCALAR"
    }
  ],
  "asset": {
    "extras": {
      "author": "Ancient World 3D (https://sketchfab.com/ancientworld3d)",
      "license": "CC-BY-NC-SA-4.0 (http://creativecommons.org/licenses/by-nc-sa/4.0/)",
      "source": "https://sketchfab.com/3d-models/100kc11-aphrodite-townley-b8fd744300c5488aa218ed8e28c4958f",
      "title": "100.KC.11 Aphrodite Townley"
    },
    "generator": "Sketchfab-12.65.0",
    "version": "2.0"
  },
  "bufferViews": [
    {
      "buffer": 0,
      "byteLength": 8948544,
      "name": "floatBufferViews",
      "target": 34963
    },
    {
      "buffer": 0,
      "byteLength": 11801016,
      "byteOffset": 8948544,
      "byteStride": 12,
      "name": "floatBufferViews",
      "target": 34962
    }
  ],
  "buffers": [
    {
      "byteLength": 20749560,
      "uri": "scene.bin"
    }
  ],
  "materials": [
    {
      "doubleSided": true,
      "name": "Scene_-_Root",
      "pbrMetallicRoughness": {
        "metallicFactor": 0.0,
        "roughnessFactor": 0.6
      }
    }
  ],
  "meshes": [
    {
      "name": "Object_0",
      "primitives": [
        {
          "attributes": {
            "NORMAL": 1,
            "POSITION": 0
          },
          "indices": 2,
          "material": 0,
          "mode": 4
        }
      ]
    },
    {
      "name": "Object_1",
      "primitives": [
        {
          "attributes": {
            "NORMAL": 4,
            "POSITION": 3
          },
          "indices": 5,
          "material": 0,
          "mode": 4
        }
      ]
    },
    {
      "name": "Object_2",
      "primitives": [
        {
          "attributes": {
            "NORMAL": 7,
            "POSITION": 6
          },
          "indices": 8,
          "material": 0,
          "mode": 4
        }
      ]
    },
    {
      "name": "Object_3",
      "primitives": [
        {
          "attributes": {
            "NORMAL": 10,
            "POSITION": 9
          },
          "indices": 11,
          "material": 0,
          "mode": 4
        }
      ]
    },
    {
      "name": "Object_4",
      "primitives": [
        {
          "attributes": {
            "NORMAL": 13,
            "POSITION": 12
          },
          "indices": 14,
          "material": 0,
          "mode": 4
        }
      ]
    },
    {
      "name": "Object_5",
      "primitives": [
        {
          "attributes": {
            "NORMAL": 16,
            "POSITION": 15
          },
          "indices": 17,
          "material": 0,
          "mode": 4
        }
      ]
    },
    {
      "name": "Object_6",
      "primitives": [
        {
          "attributes": {
            "NORMAL": 19,
            "POSITION": 18
          },
          "indices": 20,
          "material": 0,
          "mode": 4
        }
      ]
    },
    {
      "name": "Object_7",
      "primitives": [
        {
          "attributes": {
            "NORMAL": 22,
            "POSITION": 21
          },
          "indices": 23,
          "material": 0,
          "mode": 4
        }
      ]
    }
  ],
  "nodes": [
    {
      "children": [
        1
      ],
      "matrix": [
        1.0,
        0.0,
        0.0,
        0.0,
        0.0,
        2.220446049250313e-16,
        -1.0,
        0.0,
        0.0,
        1.0,
        2.220446049250313e-16,
        0.0,
        0.0,
        0.0,
        0.0,
        1.0
      ],
      "name": "Sketchfab_model"
    },
    {
      "children": [
        2,
        3,
        4,
        5,
        6,
        7,
        8,
        9
      ],
      "name": "100.KC.11 Aphrodite Townley.stl.cleaner.materialmerger.gles"
    },
    {
      "mesh": 0,
      "name": "Object_2"
    },
    {
      "mesh": 1,
      "name": "Object_3"
    },
    {
      "mesh": 2,
      "name": "Object_4"
    },
    {
      "mesh": 3,
      "name": "Object_5"
    },
    {
      "mesh": 4,
      "name": "Object_6"
    },
    {
      "mesh": 5,
      "name": "Object_7"
    },
    {
      "mesh": 6,
      "name": "Object_8"
    },
    {
      "mesh": 7,
      "name": "Object_9"
    }
  ],
  "scene": 0,
  "scenes": [
    {
      "name": "Sketchfab_Scene",
      "nodes": [
        0
      ]
    }
  ]
}
