{
  "accessors": [
    {
      "bufferView": 2,
      "componentType": 5126,
      "count": 45423,
      "max": [
        1.0513187646865845,
        2.700268268585205,
        1.0949546098709106
      ],
      "min": [
        -1.013282060623169,
        -2.7531678676605225,
        -1.0591131448745728
      ],
      "type": "VEC3"
    },
    {
      "bufferView": 2,
      "byteOffset": 545076,
      "componentType": 5126,
      "count": 45423,
      "max": [
        1.0,
        0.9999999403953552,
        0.9999947547912598
      ],
      "min": [
        -0.9999984502792358,
        -0.999996542930603,
        -0.9999985098838806
      ],
      "type": "VEC3"
    },
    {
      "bufferView": 1,
      "componentType": 5126,
      "count": 45423,
      "max": [
        0.9934868216514587,
        0.9717034697532654
      ],
      "min": [
        0.0019531056750565767,
        0.0019531056750565767
      ],
      "type": "VEC2"
    },
    {
      "bufferView": 0,
      "componentType": 5125,
      "count": 271830,
      "type": "SCALAR"
    },
    {
      "bufferView": 2,
      "byteOffset": 1090152,
      "componentType": 5126,
      "count": 45423,
      "max": [
        3.1497788429260254,
        1.0746958255767822,
        0.9401881098747253
      ],
      "min": [
        1.0377041101455688,
        -2.7823891639709473,
        -1.21445631980896
      ],
      "type": "VEC3"
    },
    {
      "bufferView": 2,
      "byteOffset": 1635228,
      "componentType": 5126,
      "count": 45423,
      "max": [
        0.9999991655349731,
        1.0,
        0.9999960064888
      ],
      "min": [
        -0.9999918341636658,
        -0.9999983310699463,
        -0.999999463558197
      ],
      "type": "VEC3"
    },
    {
      "bufferView": 1,
      "byteOffset": 363384,
      "componentType": 5126,
      "count": 45423,
      "max": [
        0.9934868216514587,
        0.9717034697532654
      ],
      "min": [
        0.0019531056750565767,
        0.0019531056750565767
      ],
      "type": "VEC2"
    },
    {
      "bufferView": 0,
      "byteOffset": 1087320,
      "componentType": 5125,
      "count": 271830,
      "type": "SCALAR"
    },
    {
      "bufferView": 2,
      "byteOffset": 2180304,
      "componentType": 5126,
      "count": 3344,
      "max": [
        0.11963293701410294,
        3.4272665977478027,
        0.24483837187290192
      ],
      "min": [
        -0.2561419606208801,
        2.391944169998169,
        -0.1386452168226242
      ],
      "type": "VEC3"
    },
    {
      "bufferView": 2,
      "byteOffset": 2220432,
      "componentType": 5126,
      "count": 3344,
      "max": [
        0.9998264312744141,
        0.9988822340965271,
        0.9999988079071045
      ],
      "min": [
        -0.9999209642410278,
        -0.9984299540519714,
        -0.9997606873512268
      ],
      "type": "VEC3"
    },
    {
      "bufferView": 1,
      "byteOffset": 726768,
      "componentType": 5126,
      "count": 3344,
      "max": [
        0.9959086179733276,
        0.943412721157074
      ],
      "min": [
        0.7858092188835144,
        0.7221319079399109
      ],
      "type": "VEC2"
    },
    {
      "bufferView": 0,
      "byteOffset": 2174640,
      "componentType": 5125,
      "count": 19530,
      "type": "SCALAR"
    },
    {
      "bufferView": 2,
      "byteOffset": 2260560,
      "componentType": 5126,
      "count": 3344,
      "max": [
        2.229583740234375,
        2.048696994781494,
        -0.005810365080833435
      ],
      "min": [
        1.8538087606430054,
        1.01337468624115,
        -0.38929396867752075
      ],
      "type": "VEC3"
    },
    {
      "bufferView": 2,
      "byteOffset": 2300688,
      "componentType": 5126,
      "count": 3344,
      "max": [
        0.9998264312744141,
        0.9988822340965271,
        0.9999988079071045
      ],
      "min": [
        -0.9999207854270935,
        -0.9984292387962341,
        -0.9997608065605164
      ],
      "type": "VEC3"
    },
    {
      "bufferView": 1,
      "byteOffset": 753520,
      "componentType": 5126,
      "count": 3344,
      "max": [
        0.9959086179733276,
        0.943412721157074
      ],
      "min": [
        0.7858092188835144,
        0.7221319079399109
      ],
      "type": "VEC2"
    },
    {
      "bufferView": 0,
      "byteOffset": 2252760,
      "componentType": 5125,
      "count": 19530,
      "type": "SCALAR"
    },
    {
      "bufferView": 2,
      "byteOffset": 2340816,
      "componentType": 5126,
      "count": 1478,
      "max": [
        0.05913444235920906,
        2.7745296955108643,
        0.13646863400936127
      ],
      "min": [
        -0.09062628448009491,
        1.9086140394210815,
        -0.04250260815024376
      ],
      "type": "VEC3"
    },
    {
      "bufferView": 2,
      "byteOffset": 2358552,
      "componentType": 5126,
      "count": 1478,
      "max": [
        0.9993644952774048,
        0.9869394898414612,
        0.9989978671073914
      ],
      "min": [
        -0.9995934367179871,
        -0.9999841451644897,
        -0.9998114705085754
      ],
      "type": "VEC3"
    },
    {
      "bufferView": 1,
      "byteOffset": 780272,
      "componentType": 5126,
      "count": 1478,
      "max": [
        0.998046875,
        0.7245212197303772
      ],
      "min": [
        0.9085361957550049,
        0.5631707906723022
      ],
      "type": "VEC2"
    },
    {
      "bufferView": 0,
      "byteOffset": 2330880,
      "componentType": 5125,
      "count": 8604,
      "type": "SCALAR"
    },
    {
      "bufferView": 2,
      "byteOffset": 2376288,
      "componentType": 5126,
      "count": 1478,
      "max": [
        2.1428332328796387,
        1.348514199256897,
        -0.06561057269573212
      ],
      "min": [
        1.9930726289749146,
        0.48259854316711426,
        -0.24458181858062744
      ],
      "type": "VEC3"
    },
    {
      "bufferView": 2,
      "byteOffset": 2394024,
      "componentType": 5126,
      "count": 1478,
      "max": [
        0.9993644952774048,
        0.9869394898414612,
        0.9989979267120361
      ],
      "min": [
        -0.9995936751365662,
        -0.9999841451644897,
        -0.9998115301132202
      ],
      "type": "VEC3"
    },
    {
      "bufferView": 1,
      "byteOffset": 792096,
      "componentType": 5126,
      "count": 1478,
      "max": [
        0.998046875,
        0.7245212197303772
      ],
      "min": [
        0.9085361957550049,
        0.5631707906723022
      ],
      "type": "VEC2"
    },
    {
      "bufferView": 0,
      "byteOffset": 2365296,
      "componentType": 5125,
      "count": 8604,
      "type": "SCALAR"
    }
  ],
  "asset": {
    "extras": {
      "author": "Ruben Van Ostaeyen (https://sketchfab.com/RubenVO)",
      "license": "CC-BY-4.0 (http://creativecommons.org/licenses/by/4.0/)",
      "source": "https://sketchfab.com/3d-models/adventurers-camp-candles-6ba2ad43ea0c4611989cf4ec93775864",
      "title": "Adventurer's Camp - Candles"
    },
    "generator": "Sketchfab-12.67.0",
    "version": "2.0"
  },
  "bufferViews": [
    {
      "buffer": 0,
      "byteLength": 2399712,
      "name": "floatBufferViews",
      "target": 34963
    },
    {
      "buffer": 0,
      "byteLength": 803920,
      "byteOffset": 2399712,
      "byteStride": 8,
      "name": "floatBufferViews",
      "target": 34962
    },
    {
      "buffer": 0,
      "byteLength": 2411760,
      "byteOffset": 3203632,
      "byteStride": 12,
      "name": "floatBufferViews",
      "target": 34962
    }
  ],
  "buffers": [
    {
      "byteLength": 5615392,
      "uri": "scene.bin"
    }
  ],
  "images": [
    {
      "uri": "textures/Material_26_baseColor.png"
    },
    {
      "uri": "textures/Material_26_metallicRoughness.png"
    },
    {
      "uri": "textures/Material_25_baseColor.png"
    },
    {
      "uri": "textures/Material_25_metallicRoughness.png"
    },
    {
      "uri": "textures/Material_25_emissive.png"
    }
  ],
  "materials": [
    {
      "doubleSided": true,
      "name": "Material_26",
      "occlusionTexture": {
        "index": 1
      },
      "pbrMetallicRoughness": {
        "baseColorTexture": {
          "index": 0
        },
        "metallicFactor": 0.0,
        "metallicRoughnessTexture": {
          "index": 1
        }
      }
    },
    {
      "alphaMode": "BLEND",
      "emissiveFactor": [
        1.0,
        1.0,
        1.0
      ],
      "emissiveTexture": {
        "index": 4
      },
      "name": "Material_25",
      "occlusionTexture": {
        "index": 3
      },
      "pbrMetallicRoughness": {
        "baseColorFactor": [
          1.0,
          0.5022892033407911,
          0.18648417912592063,
          1.0
        ],
        "baseColorTexture": {
          "index": 2
        },
        "metallicFactor": 0.0,
        "metallicRoughnessTexture": {
          "index": 3
        }
      }
    }
  ],
  "meshes": [
    {
      "name": "candles_03_Decimated_Material #26_0",
      "primitives": [
        {
          "attributes": {
            "NORMAL": 1,
            "POSITION": 0,
            "TEXCOORD_0": 2
          },
          "indices": 3,
          "material": 0,
          "mode": 4
        }
      ]
    },
    {
      "name": "candles_03_Decimated1_Material #26_0",
      "primitives": [
        {
          "attributes": {
            "NORMAL": 5,
            "POSITION": 4,
            "TEXCOORD_0": 6
          },
          "indices": 7,
          "material": 0,
          "mode": 4
        }
      ]
    },
    {
      "name": "CandleFlame_Material #25_0",
      "primitives": [
        {
          "attributes": {
            "NORMAL": 9,
            "POSITION": 8,
            "TEXCOORD_0": 10
          },
          "indices": 11,
          "material": 1,
          "mode": 4
        }
      ]
    },
    {
      "name": "CandleFlame1_Material #25_0",
      "primitives": [
        {
          "attributes": {
            "NORMAL": 13,
            "POSITION": 12,
            "TEXCOORD_0": 14
          },
          "indices": 15,
          "material": 1,
          "mode": 4
        }
      ]
    },
    {
      "name": "CandleWick_Material #26_0",
      "primitives": [
        {
          "attributes": {
            "NORMAL": 17,
            "POSITION": 16,
            "TEXCOORD_0": 18
          },
          "indices": 19,
          "material": 0,
          "mode": 4
        }
      ]
    },
    {
      "name": "CandleWick1_Material #26_0",
      "primitives": [
        {
          "attributes": {
            "NORMAL": 21,
            "POSITION": 20,
            "TEXCOORD_0": 22
          },
          "indices": 23,
          "material": 0,
          "mode": 4
        }
      ]
    }
  ],
  "nodes": [
    {
      "children": [
        1
      ],
      "matrix": [
        -0.06367673530222184,
        0.00046731671397112415,
        1.0376515512858212e-19,
        0.0,
        0.0,
        1.4139456468428256e-17,
        -0.06367845088243484,
        0.0,
        -0.00046731671397112415,
        -0.06367673530222184,
        -1.4139075533097643e-17,
        0.0,
        0.3796057105064392,
        -0.21495135128498077,
        -3.2910000418494595e-07,
        1.0
      ],
      "name": "Sketchfab_model"
    },
    {
      "children": [
        2
      ],
      "matrix": [
        1.0,
        0.0,
        0.0,
        0.0,
        0.0,
        -1.0,
        0.0,
        0.0,
        0.0,
        0.0,
        -1.0,
        0.0,
        0.0,
        0.0,
        0.0,
        1.0
      ],
      "name": "0b7f1c40124c45ce9f8da5c6bcdb62d5.fbx"
    },
    {
      "children": [
        3,
        5,
        7,
        9,
        11,
        13
      ],
      "name": "RootNode"
    },
    {
      "children": [
        4
      ],
      "matrix": [
        10.0,
        0.0,
        0.0,
        0.0,
        0.0,
        -4.371139006309477e-07,
        9.99999999999999,
        0.0,
        0.0,
        -9.99999999999999,
        -4.371139006309477e-07,
        0.0,
        0.0,
        0.0,
        0.0,
        1.0
      ],
      "name": "candles_03_Decimated"
    },
    {
      "mesh": 0,
      "name": "candles_03_Decimated_Material #26_0"
    },
    {
      "children": [
        6
      ],
      "matrix": [
        10.0,
        0.0,
        0.0,
        0.0,
        0.0,
        -4.371139006309477e-07,
        9.99999999999999,
        0.0,
        0.0,
        -9.99999999999999,
        -4.371139006309477e-07,
        0.0,
        0.0,
        0.0,
        0.0,
        1.0
      ],
      "name": "candles_03_Decimated1"
    },
    {
      "mesh": 1,
      "name": "candles_03_Decimated1_Material #26_0"
    },
    {
      "children": [
        8
      ],
      "matrix": [
        10.0,
        0.0,
        0.0,
        0.0,
        0.0,
        -4.371139006309477e-07,
        9.99999999999999,
        0.0,
        0.0,
        -9.99999999999999,
        -4.371139006309477e-07,
        0.0,
        0.0,
        0.0,
        0.0,
        1.0
      ],
      "name": "CandleFlame"
    },
    {
      "mesh": 2,
      "name": "CandleFlame_Material #25_0"
    },
    {
      "children": [
        10
      ],
      "matrix": [
        10.0,
        0.0,
        0.0,
        0.0,
        0.0,
        -4.371139006309477e-07,
        9.99999999999999,
        0.0,
        0.0,
        -9.99999999999999,
        -4.371139006309477e-07,
        0.0,
        0.0,
        0.0,
        0.0,
        1.0
      ],
      "name": "CandleFlame1"
    },
    {
      "mesh": 3,
      "name": "CandleFlame1_Material #25_0"
    },
    {
      "children": [
        12
      ],
      "matrix": [
        10.0,
        0.0,
        0.0,
        0.0,
        0.0,
        -4.371139006309477e-07,
        9.99999999999999,
        0.0,
        0.0,
        -9.99999999999999,
        -4.371139006309477e-07,
        0.0,
        0.0,
        0.0,
        0.0,
        1.0
      ],
      "name": "CandleWick"
    },
    {
      "mesh": 4,
      "name": "CandleWick_Material #26_0"
    },
    {
      "children": [
        14
      ],
      "matrix": [
        10.0,
        0.0,
        0.0,
        0.0,
        0.0,
        -4.371139006309477e-07,
        9.99999999999999,
        0.0,
        0.0,
        -9.99999999999999,
        -4.371139006309477e-07,
        0.0,
        0.0,
        0.0,
        0.0,
        1.0
      ],
      "name": "CandleWick1"
    },
    {
      "mesh": 5,
      "name": "CandleWick1_Material #26_0"
    }
  ],
  "samplers": [
    {
      "magFilter": 9729,
      "minFilter": 9987,
      "wrapS": 10497,
      "wrapT": 10497
    }
  ],
  "scene": 0,
  "scenes": [
    {
      "name": "Sketchfab_Scene",
      "nodes": [
        0
      ]
    }
  ],
  "textures": [
    {
      "sampler": 0,
      "source": 0
    },
    {
      "sampler": 0,
      "source": 1
    },
    {
      "sampler": 0,
      "source": 2
    },
    {
      "sampler": 0,
      "source": 3
    },
    {
      "sampler": 0,
      "source": 4
    }
  ]
}
